<?xml version="1.0" encoding="UTF-8" standalone="no"?>
<svg
   xmlns:dc="http://purl.org/dc/elements/1.1/"
   xmlns:cc="http://creativecommons.org/ns#"
   xmlns:rdf="http://www.w3.org/1999/02/22-rdf-syntax-ns#"
   xmlns:svg="http://www.w3.org/2000/svg"
   xmlns="http://www.w3.org/2000/svg"
   xmlns:sodipodi="http://sodipodi.sourceforge.net/DTD/sodipodi-0.dtd"
   xmlns:inkscape="http://www.inkscape.org/namespaces/inkscape"
   width="17px"
   height="17px"
   viewBox="0 0 17 17"
   version="1.1"
   id="svg901"
   sodipodi:docname="comment.svg"
   inkscape:version="0.92.2 5c3e80d, 2017-08-06">
  <metadata
     id="metadata907">
    <rdf:RDF>
      <cc:Work
         rdf:about="">
        <dc:format>image/svg+xml</dc:format>
        <dc:type
           rdf:resource="http://purl.org/dc/dcmitype/StillImage" />
      </cc:Work>
    </rdf:RDF>
  </metadata>
  <defs
     id="defs905" />
  <sodipodi:namedview
     pagecolor="#ffffff"
     bordercolor="#666666"
     borderopacity="1"
     objecttolerance="10"
     gridtolerance="10"
     guidetolerance="10"
     inkscape:pageopacity="0"
     inkscape:pageshadow="2"
     inkscape:window-width="640"
     inkscape:window-height="480"
     id="namedview903"
     showgrid="false"
     inkscape:zoom="32.823529"
     inkscape:cx="8.5"
     inkscape:cy="8.5"
     inkscape:current-layer="svg901" />
  <g
     id="g897" />
  <path
     d="M15.5 0h-14c-0.827 0-1.5 0.673-1.5 1.5v10c0 0.827 0.673 1.5 1.5 1.5h0.5v4.102l4.688-4.102h8.812c0.827 0 1.5-0.673 1.5-1.5v-10c0-0.827-0.673-1.5-1.5-1.5zM16 11.5c0 0.275-0.224 0.5-0.5 0.5h-9.188l-3.312 2.898v-2.898h-1.5c-0.276 0-0.5-0.225-0.5-0.5v-10c0-0.275 0.224-0.5 0.5-0.5h14c0.276 0 0.5 0.225 0.5 0.5v10zM3 3h11v1h-11v-1zM3 5h11v1h-11v-1zM3 7h6v1h-6v-1z"
     fill="#000000"
     id="path899"
     style="fill:#f9f9f9" />
</svg>
