<?xml version="1.0" encoding="UTF-8" standalone="no"?>
<svg
   xmlns:dc="http://purl.org/dc/elements/1.1/"
   xmlns:cc="http://creativecommons.org/ns#"
   xmlns:rdf="http://www.w3.org/1999/02/22-rdf-syntax-ns#"
   xmlns:svg="http://www.w3.org/2000/svg"
   xmlns="http://www.w3.org/2000/svg"
   xmlns:sodipodi="http://sodipodi.sourceforge.net/DTD/sodipodi-0.dtd"
   xmlns:inkscape="http://www.inkscape.org/namespaces/inkscape"
   width="48px"
   height="48px"
   viewBox="0 0 48 48"
   version="1.1"
   id="svg84"
   sodipodi:docname="play.svg"
   inkscape:version="0.92.2 5c3e80d, 2017-08-06">
  <metadata
     id="metadata90">
    <rdf:RDF>
      <cc:Work
         rdf:about="">
        <dc:format>image/svg+xml</dc:format>
        <dc:type
           rdf:resource="http://purl.org/dc/dcmitype/StillImage" />
      </cc:Work>
    </rdf:RDF>
  </metadata>
  <defs
     id="defs88">
    <filter
       inkscape:label="Growing Cells"
       inkscape:menu="Overlays"
       inkscape:menu-tooltip="Random rounded living cells like fill"
       x="-0.05"
       y="-0.05"
       width="1.1"
       height="1.1"
       style="color-interpolation-filters:sRGB;"
       id="filter132">
      <feGaussianBlur
         stdDeviation="5"
         result="result1"
         id="feGaussianBlur106" />
      <feComposite
         in="result1"
         in2="result1"
         result="result4"
         operator="xor"
         id="feComposite108" />
      <feGaussianBlur
         stdDeviation="8"
         result="result6"
         id="feGaussianBlur110" />
      <feComposite
         operator="atop"
         in="result6"
         in2="SourceGraphic"
         result="result8"
         id="feComposite112" />
      <feComposite
         operator="in"
         result="fbSourceGraphic"
         in="result6"
         in2="result8"
         id="feComposite114" />
      <feColorMatrix
         result="fbSourceGraphicAlpha"
         in="fbSourceGraphic"
         values="0 0 0 -1 0 0 0 0 -1 0 0 0 0 -1 0 0 0 0 2 0 "
         id="feColorMatrix116" />
      <feGaussianBlur
         result="result0"
         in="fbSourceGraphicAlpha"
         stdDeviation="2"
         id="feGaussianBlur118" />
      <feSpecularLighting
         specularExponent="25"
         specularConstant="2"
         surfaceScale="-5"
         lighting-color="rgb(255,255,255)"
         result="result1"
         in="result0"
         id="feSpecularLighting122">
        <fePointLight
           z="20000"
           y="-10000"
           x="-5000"
           id="fePointLight120" />
      </feSpecularLighting>
      <feComposite
         operator="in"
         result="result2"
         in="result1"
         in2="fbSourceGraphicAlpha"
         id="feComposite124" />
      <feComposite
         k3="2"
         k2="1"
         operator="arithmetic"
         result="result4"
         in="fbSourceGraphic"
         in2="result2"
         id="feComposite126" />
      <feComposite
         operator="in"
         in="result4"
         result="result9"
         in2="result4"
         id="feComposite128" />
      <feBlend
         mode="multiply"
         in="result9"
         in2="result4"
         id="feBlend130"
         result="fbSourceGraphic" />
      <feColorMatrix
         result="fbSourceGraphicAlpha"
         in="fbSourceGraphic"
         values="0 0 0 -1 0 0 0 0 -1 0 0 0 0 -1 0 0 0 0 1 0"
         id="feColorMatrix218" />
      <feTurbulence
         id="feTurbulence220"
         type="fractalNoise"
         baseFrequency="0.1"
         numOctaves="3"
         result="result7"
         in="fbSourceGraphic" />
      <feColorMatrix
         id="feColorMatrix222"
         values="0"
         result="result8"
         type="saturate" />
      <feColorMatrix
         id="feColorMatrix224"
         values="1 0 0 0 0 0 1 0 0 0 0 0 1 0 0 0 0 0 20 -12 "
         result="result6"
         type="matrix" />
      <feGaussianBlur
         id="feGaussianBlur226"
         stdDeviation="2"
         result="result5"
         in="result6" />
      <feColorMatrix
         id="feColorMatrix228"
         in="result5"
         values="1 0 0 0 0 0 1 0 0 0 0 0 1 0 0 0 0 0 10 -0.1 "
         result="result0"
         type="matrix" />
      <feComposite
         in2="fbSourceGraphic"
         id="feComposite230"
         k1="0.8"
         k2="1"
         operator="arithmetic"
         result="result3"
         in="result0" />
      <feComposite
         in2="result8"
         id="feComposite232"
         operator="atop"
         result="result10" />
      <feBlend
         in2="fbSourceGraphic"
         id="feBlend234"
         mode="normal"
         result="result9" />
      <feComposite
         in2="fbSourceGraphic"
         id="feComposite236"
         in="result9"
         operator="atop"
         result="result2" />
    </filter>
  </defs>
  <sodipodi:namedview
     pagecolor="#ffffff"
     bordercolor="#666666"
     borderopacity="1"
     objecttolerance="10"
     gridtolerance="10"
     guidetolerance="10"
     inkscape:pageopacity="0"
     inkscape:pageshadow="2"
     inkscape:window-width="640"
     inkscape:window-height="480"
     id="namedview86"
     showgrid="false"
     inkscape:zoom="11.208333"
     inkscape:cx="18.738049"
     inkscape:cy="24.296844"
     inkscape:current-layer="svg84" />
  <title
     id="title78">ONE-xicons</title>
  <path
     d="M9.3,47.4a2.5,2.5,0,0,1-1.21-.32A2.47,2.47,0,0,1,6.8,44.89V3.11A2.5,2.5,0,0,1,10.63,1L44,21.88h0a2.5,2.5,0,0,1,0,4.24L10.63,47A2.49,2.49,0,0,1,9.3,47.4Zm0-45.79a1.5,1.5,0,0,0-.73.19A1.48,1.48,0,0,0,7.8,3.11V44.89a1.5,1.5,0,0,0,2.3,1.27l33.4-20.89a1.5,1.5,0,0,0,0-2.54L10.1,1.84A1.5,1.5,0,0,0,9.3,1.61Z"
     id="path80"
     style="filter:url(#filter132);fill:#f9f9f9" />
  <rect
     width="48"
     height="48"
     fill="none"
     id="rect82" />
  <path
     style="fill:#f9f9f9;stroke-width:0.03372069;stroke-miterlimit:4;stroke-dasharray:none"
     d="M 8.5304499,46.128435 C 8.3682255,46.018026 8.1515075,45.814341 8.0488543,45.675802 L 7.8622122,45.423912 7.8391768,24.136707 7.8161415,2.8495003 8.0016409,2.4663096 C 8.3443711,1.7583235 9.1585455,1.4633291 9.8788162,1.7861651 c 0.2157748,0.096713 1.8175968,1.0694544 3.5596038,2.1616466 1.742008,1.0921922 3.68922,2.3085606 4.327138,2.703041 0.637918,0.3944803 1.440892,0.894714 1.784386,1.1116304 0.343495,0.2169163 1.828997,1.1473322 3.301116,2.0675907 1.472119,0.9202592 4.583643,2.8690152 6.914498,4.3305712 2.330855,1.461556 6.450243,4.038363 9.154195,5.726239 4.666706,2.913076 4.924834,3.087842 5.084852,3.442699 0.214695,0.476107 0.193964,1.053249 -0.05214,1.451447 -0.169004,0.273454 -0.65438,0.618803 -2.359484,1.678786 -0.09492,0.059 -0.46219,0.28795 -0.816166,0.508767 -0.353977,0.220818 -0.874792,0.542008 -1.157368,0.713755 -0.282575,0.171747 -0.829186,0.513011 -1.21469,0.758364 -0.385503,0.245354 -0.871045,0.550287 -1.078981,0.677632 -0.472697,0.289488 -3.880142,2.420703 -4.482155,2.803402 -0.245353,0.15597 -0.827509,0.519939 -1.293681,0.808818 -0.466171,0.288881 -0.867657,0.550367 -0.892193,0.58108 -0.02454,0.03071 -0.178479,0.12445 -0.342096,0.208303 -0.163618,0.08385 -0.785923,0.465183 -1.3829,0.8474 -0.596977,0.382217 -1.720041,1.092074 -2.495696,1.577461 -1.502826,0.940432 -1.801614,1.125942 -3.922287,2.435253 -0.747384,0.461437 -1.559623,0.968132 -1.804976,1.12599 -0.245353,0.157857 -1.831227,1.15015 -3.524164,2.205095 -1.692937,1.054944 -3.918107,2.448007 -4.944822,3.095694 -1.026716,0.647687 -2.018797,1.255178 -2.204624,1.349981 -0.4717125,0.240649 -1.1286459,0.228269 -1.5057361,-0.02838 z"
     id="path238"
     inkscape:connector-curvature="0" />
</svg>
